<svg width="320" height="320" viewBox="0 0 320 320" fill="none" xmlns="http://www.w3.org/2000/svg">
<path d="M246.073 179.036C246.073 226.553 207.553 265.073 160.036 265.073C112.52 265.073 74 226.553 74 179.036C74 131.52 112.52 93 160.036 93C207.553 93 246.073 131.52 246.073 179.036ZM89.5453 179.036C89.5453 217.968 121.105 249.527 160.036 249.527C198.968 249.527 230.527 217.968 230.527 179.036C230.527 140.105 198.968 108.545 160.036 108.545C121.105 108.545 89.5453 140.105 89.5453 179.036Z" fill="#B6CC77"/>
<path d="M160.259 295L172.216 262.366H148.301L160.259 295Z" fill="#B6CC77"/>
<path d="M199.996 312.769C199.996 316.508 182.312 319.538 160.498 319.538C138.684 319.538 121 316.508 121 312.769C121 309.031 138.684 306 160.498 306C182.312 306 199.996 309.031 199.996 312.769Z" fill="black" fill-opacity="0.3"/>
<path d="M91.3124 31.7322C91.1135 29.727 90.2601 28.1693 88.752 27.0589C87.244 25.9486 85.1974 25.3935 82.6121 25.3935C80.8555 25.3935 79.3723 25.642 78.1626 26.1392C76.9528 26.6198 76.0248 27.291 75.3785 28.1527C74.7487 29.0144 74.4339 29.9922 74.4339 31.0859C74.4007 31.9974 74.5913 32.7929 75.0056 33.4723C75.4365 34.1518 76.0248 34.7401 76.7705 35.2372C77.5162 35.7178 78.378 36.1404 79.3557 36.505C80.3335 36.853 81.3775 37.1513 82.4878 37.3999L87.0617 38.4936C89.2823 38.9908 91.3207 39.6536 93.1768 40.4822C95.0328 41.3108 96.6403 42.33 97.9992 43.5398C99.3581 44.7495 100.41 46.1747 101.156 47.8153C101.918 49.456 102.308 51.3369 102.324 53.4581C102.308 56.5736 101.512 59.2749 99.9381 61.5618C98.3804 63.8321 96.1266 65.5971 93.1768 66.8565C90.2435 68.0994 86.7054 68.7209 82.5624 68.7209C78.4526 68.7209 74.873 68.0911 71.8238 66.8317C68.7911 65.5722 66.4213 63.7079 64.7144 61.2386C63.0241 58.7528 62.1375 55.6787 62.0546 52.0163H72.4701C72.5861 53.7232 73.075 55.1484 73.9367 56.2919C74.815 57.4188 75.9833 58.2723 77.4417 58.8523C78.9166 59.4157 80.5821 59.6974 82.4381 59.6974C84.261 59.6974 85.8437 59.4323 87.186 58.902C88.5449 58.3717 89.5972 57.6342 90.343 56.6896C91.0887 55.745 91.4616 54.6596 91.4616 53.4332C91.4616 52.2898 91.1218 51.3286 90.4424 50.5497C89.7795 49.7708 88.8018 49.108 87.5091 48.5611C86.2331 48.0142 84.6671 47.517 82.811 47.0696L77.2677 45.6776C72.9755 44.6335 69.5866 43.0012 67.1008 40.7805C64.615 38.5599 63.3804 35.5687 63.3969 31.8068C63.3804 28.7244 64.2007 26.0315 65.8579 23.728C67.5316 21.4245 69.8269 19.6264 72.7435 18.3338C75.6602 17.0412 78.9746 16.3949 82.6867 16.3949C86.4651 16.3949 89.7629 17.0412 92.5802 18.3338C95.414 19.6264 97.618 21.4245 99.1924 23.728C100.767 26.0315 101.579 28.6996 101.628 31.7322H91.3124ZM129.374 29.8182V37.7727H106.381V29.8182H129.374ZM111.601 20.6705H122.19V56.267C122.19 57.2448 122.34 58.0071 122.638 58.554C122.936 59.0843 123.351 59.4571 123.881 59.6726C124.428 59.888 125.057 59.9957 125.77 59.9957C126.267 59.9957 126.764 59.9543 127.262 59.8714C127.759 59.772 128.14 59.6974 128.405 59.6477L130.07 67.5277C129.54 67.6934 128.794 67.884 127.833 68.0994C126.872 68.3314 125.704 68.4723 124.328 68.522C121.776 68.6214 119.539 68.2817 117.617 67.5028C115.711 66.724 114.228 65.5142 113.167 63.8736C112.106 62.233 111.584 60.1615 111.601 57.6591V20.6705ZM135.973 68V29.8182H146.239V36.4801H146.637C147.333 34.1103 148.501 32.3205 150.142 31.1108C151.782 29.8845 153.671 29.2713 155.809 29.2713C156.339 29.2713 156.911 29.3044 157.524 29.3707C158.138 29.437 158.676 29.5282 159.14 29.6442V39.0405C158.643 38.8913 157.955 38.7588 157.077 38.6428C156.199 38.5268 155.395 38.4688 154.666 38.4688C153.108 38.4688 151.716 38.8085 150.49 39.4879C149.28 40.1508 148.319 41.0788 147.606 42.272C146.91 43.4652 146.562 44.8407 146.562 46.3984V68H135.973ZM179.789 68.7457C175.928 68.7457 172.589 67.9254 169.771 66.2848C166.971 64.6276 164.808 62.3241 163.284 59.3743C161.759 56.4079 160.997 52.9692 160.997 49.0582C160.997 45.1141 161.759 41.6671 163.284 38.7173C164.808 35.7509 166.971 33.4474 169.771 31.8068C172.589 30.1496 175.928 29.321 179.789 29.321C183.65 29.321 186.981 30.1496 189.782 31.8068C192.599 33.4474 194.77 35.7509 196.295 38.7173C197.819 41.6671 198.582 45.1141 198.582 49.0582C198.582 52.9692 197.819 56.4079 196.295 59.3743C194.77 62.3241 192.599 64.6276 189.782 66.2848C186.981 67.9254 183.65 68.7457 179.789 68.7457ZM179.839 60.5426C181.596 60.5426 183.062 60.0455 184.239 59.0511C185.415 58.0402 186.302 56.6648 186.899 54.9247C187.512 53.1847 187.818 51.2043 187.818 48.9837C187.818 46.763 187.512 44.7827 186.899 43.0426C186.302 41.3026 185.415 39.9271 184.239 38.9162C183.062 37.9053 181.596 37.3999 179.839 37.3999C178.066 37.3999 176.574 37.9053 175.364 38.9162C174.171 39.9271 173.268 41.3026 172.655 43.0426C172.058 44.7827 171.76 46.763 171.76 48.9837C171.76 51.2043 172.058 53.1847 172.655 54.9247C173.268 56.6648 174.171 58.0402 175.364 59.0511C176.574 60.0455 178.066 60.5426 179.839 60.5426ZM215.757 17.0909V68H205.167V17.0909H215.757ZM230.477 82.3182C229.135 82.3182 227.876 82.2105 226.699 81.995C225.539 81.7962 224.578 81.5393 223.815 81.2244L226.202 73.3196C227.445 73.7008 228.563 73.9079 229.558 73.9411C230.569 73.9742 231.439 73.7422 232.168 73.245C232.913 72.7479 233.518 71.9027 233.982 70.7095L234.604 69.0938L220.907 29.8182H232.043L239.948 57.858H240.346L248.325 29.8182H259.536L244.696 72.1264C243.984 74.1813 243.014 75.9711 241.788 77.4957C240.578 79.0369 239.045 80.2218 237.189 81.0504C235.333 81.8956 233.096 82.3182 230.477 82.3182Z" fill="black"/>
</svg>
