<svg width="512" height="498" viewBox="0 0 512 498" fill="none" xmlns="http://www.w3.org/2000/svg">
<path d="M507.656 198.98L506.16 191.898L498.918 192.844C497.101 193.051 495.125 193.317 493.109 193.543C492.906 193.535 492.703 193.528 492.496 193.512C495.136 190.875 497.773 188.238 500.258 185.446L503.328 182.06L501.91 177.731C488.844 137.985 463.66 101.228 429.028 71.556L427.454 70.22L422.18 69.036L419.348 71.083C410.074 77.587 397.446 85.774 382.399 93.927C379.02 95.708 375.625 97.458 372.2 99.106C384.262 80.844 395.59 62.641 398.493 57.86L402.583 51.25L396.052 47.078C368.818 29.84 338.517 17.09 306.17 9.21898C285.548 4.18398 264.533 1.34799 243.756 0.640985L237.615 0.484985L235.963 6.38699C234.779 10.528 233.557 14.84 232.283 19.2C232.017 19.985 231.783 20.762 231.486 21.559C228.99 15.028 226.498 9.57399 224.392 5.36399L222.11 0.718985L216.915 1.03499C168.353 3.94499 123.095 18.665 86.025 43.692L82.408 46.211L82.564 50.539C82.74 55.668 82.861 61.371 82.947 67.348C82.939 69.301 82.962 71.168 82.912 73.215C79.958 69.493 76.931 65.84 73.83 62.348L68.552 56.602L62.728 61.716C32.193 88.794 11.099 123.189 1.888 161.204L0.049 168.72L0.037 168.763H0.041L0 168.914L7.633 170.727C110.977 195.832 189.918 275.797 200.309 365.523C199.203 369.539 198.023 373.551 196.766 377.488C194.168 385.988 191.727 393.153 189.289 399.446C184.25 412.668 178.27 425.184 171.895 435.809C170.633 438.09 169.219 440.137 167.485 442.5C166.149 444.547 164.813 446.434 163.157 448.481C161.111 451.313 158.829 453.676 156.86 455.723L155.602 457.137C154.422 458.399 153.243 459.344 152.297 460.129C151.586 460.758 150.879 461.309 150.328 461.859C148.992 462.965 148.281 463.593 147.969 463.828C146.945 464.695 146.079 465.481 145.527 466.27C138.757 474.297 139.781 486.262 147.809 493.106C151.274 495.942 155.602 497.516 160.086 497.516C165.676 497.516 170.949 495.074 174.571 490.746L178.27 486.496C179.61 485 181.18 483.114 182.754 481.066C185.43 477.84 188.344 473.902 191.492 469.496C195.113 464.695 198.418 459.262 201.801 453.676C208.809 442.184 215.969 428.098 222.5 412.906C225.648 405.664 228.718 397.715 231.789 389.292C233.679 384.097 235.41 378.902 237.141 373.55C276.336 315.858 347.961 281.464 428.949 281.464C451.617 281.464 474.598 284.218 497.109 289.73L504.742 291.617L506.632 283.984C513.402 256.043 513.797 227.472 507.656 198.98ZM174.57 209.449C197.867 197.171 223.444 188.355 250.444 184.105C249.452 190.968 248.03 198.699 246.269 206.754C245.757 208.891 245.323 211.125 244.741 213.192C244.804 213.129 244.855 213.078 244.917 213.02C244.89 213.118 244.878 213.207 244.855 213.305C257.605 200.95 268.23 190.247 277.125 181.192C281.531 180.958 286.019 180.801 290.426 180.801C309 180.801 327.024 182.848 344.418 186.782C343.59 192.415 342.391 198.54 340.992 204.844C340.496 206.867 340.078 208.902 339.507 210.91C339.566 210.848 339.621 210.796 339.679 210.738C339.656 210.836 339.64 210.926 339.617 211.024C347.171 203.703 354.019 197.012 360.16 190.797C387.785 198.825 413.367 211.575 436.031 228.102C442.171 232.591 438.945 242.192 431.312 242.114H428.949C354.965 242.114 287.277 267.38 239.187 311.532C235.175 315.154 228.718 313.501 226.909 308.462C215.261 276.744 196.765 247.228 172.761 221.572C169.297 217.871 170.086 211.808 174.57 209.449Z" fill="#374149"/>
</svg>
