<svg width="512" height="512" viewBox="0 0 512 512" fill="none" xmlns="http://www.w3.org/2000/svg">
<path d="M427.836 304L427.633 304.106L400.183 318.102L398.683 318.868L369.613 302.216L354.983 293.743L398.593 268.762L420.796 256.137L420.714 256.09L420.874 256L376.972 230.851L354.983 218.164L398.682 193.129L400.182 193.899L427.632 207.891L427.835 207.997L497.882 243.818L511.862 216.896L511.928 216.775H511.924L511.998 216.634L469.349 194.825L441.748 180.708L434.357 176.93L430.537 174.884L487.338 142.345L487.537 142.231L487.678 142.149L471.209 113.848L434.091 135.11L413.989 146.528L414.591 134.032L416.072 103.258L418.361 55.708L387.783 54.258L387.733 54.254L387.577 54.247L383.815 132.345L383.803 132.575L382.295 163.157L382.213 164.829L352.908 181.618L338.435 189.818V139.408L338.513 114.462L338.435 114.509V114.325L294.415 139.544L272.466 152.024V101.962L273.888 101.056L299.826 84.466L300.021 84.345L365.838 42.36L366.17 42.15L366.303 42.064L349.641 16.34L309.282 42.082L283.16 58.742L276.156 63.211L272.469 65.461V0H239.531V42.754L239.445 65.508L228.843 58.742L202.717 42.082L162.363 16.34L145.902 41.746L145.781 41.929L145.695 42.062L211.981 84.344L212.176 84.465L238.114 101.055L239.532 101.961V135.625L239.454 152.071L195.556 126.922L173.724 114.328V114.418L173.564 114.324V165.012L173.486 189.859L129.787 164.828L129.709 163.156L128.197 132.574L128.185 132.344L124.439 54.469L124.435 54.407L124.427 54.247L93.849 55.696L93.802 55.7L93.642 55.708L95.931 103.258L97.412 134.032L97.81 142.329L97.935 146.583L40.794 113.849L24.587 141.7L24.404 142.013H24.408L24.326 142.15L61.338 163.352L81.459 174.978L70.253 180.708L42.651 194.825L0.569 216.345L0.143 216.559H0.147L0 216.633L14.121 243.817L84.164 207.996L84.371 207.89L111.82 193.898L113.32 193.128L142.434 209.812L157.016 218.253L113.359 243.265L91.207 255.859L91.289 255.906L91.129 256L134.961 281.11L157.016 293.836L113.32 318.867L111.82 318.101L84.371 304.105L84.164 304L14.121 268.183L0.156 295.062L0.074 295.222L0 295.367L42.649 317.176L70.251 331.289L77.625 335.063L81.461 337.117L24.899 369.519L24.461 369.765H24.465L24.324 369.847L40.793 398.148L78.019 376.823L98.012 365.468L97.41 377.964L95.929 408.742L93.655 456.019L93.648 456.133L93.64 456.289L124.425 457.751L128.183 379.653L128.195 379.427L129.707 348.845L129.785 347.169L159.063 330.399L173.563 322.184V372.59L173.485 397.532L173.563 397.489V397.673L217.625 372.431L239.531 359.974V410.04L238.113 410.942L212.175 427.532L211.98 427.657L146.331 469.528L145.827 469.849H145.831L145.694 469.935L162.362 495.657L202.717 469.915L228.843 453.254L235.87 448.774L239.53 446.536V512H272.468V469.282L272.554 446.492L283.16 453.254L309.282 469.915L349.641 495.657L366.129 470.212L366.219 470.071L366.305 469.934L300.023 427.656L299.828 427.531L273.89 410.941L272.468 410.039V376.371L272.546 359.925L316.483 385.097L338.277 397.671V397.581L338.437 397.675V346.987L338.515 322.136L382.214 347.167L382.296 348.843L383.804 379.425L383.816 379.651L387.566 457.538L387.57 457.588L387.578 457.749L418.164 456.299L418.203 456.295L418.363 456.287L416.074 408.741L414.593 377.963L414.191 369.639L414.07 365.416L471.211 398.147L487.484 370.178L487.598 369.982L487.68 369.846L450.61 348.608L430.548 337.018L441.751 331.288L469.352 317.175L511.551 295.597L511.86 295.437L512.001 295.367L497.884 268.183L427.836 304ZM167.973 262.282L157.083 255.953L190.032 237.075L211.954 249.633L222.985 256.047L190.032 274.921L167.973 262.282ZM239.531 322.149L217.41 334.82L206.5 340.981V303.227L239.531 284.301V322.149ZM239.531 215.278L239.453 227.652L206.5 208.774V170.926L239.531 189.852V215.278ZM272.469 189.851L305.5 170.93V208.774L283.39 221.442L272.468 227.606V189.851H272.469ZM305.5 328.57L305.422 341.023L272.469 322.149V284.301L305.5 303.223V328.57ZM321.969 274.922L299.969 262.32L289.019 255.953L321.969 237.079L343.93 249.657L354.922 256.048L321.969 274.922Z" fill="#374149"/>
</svg>
