<svg width="512" height="456" viewBox="0 0 512 456" fill="none" xmlns="http://www.w3.org/2000/svg">
<path d="M466.93 334.98C469.38 331.331 471.724 327.639 473.974 323.904C474.208 323.514 474.447 323.13 474.677 322.74C476.806 319.166 478.834 315.552 480.779 311.903C481.072 311.356 481.369 310.809 481.657 310.258C483.556 306.628 485.361 302.964 487.083 299.268C487.337 298.722 487.595 298.174 487.845 297.627C489.607 293.775 491.267 289.896 492.834 285.981C492.979 285.622 493.127 285.262 493.268 284.899C530.534 190.677 511.974 79.334 439.534 0L406.663 22.968L403.026 25.488C403.029 25.495 403.033 25.499 403.037 25.503L402.904 25.597C489.704 124.852 476.75 279.923 363.403 359.124C356.409 364.011 349.272 368.43 342.029 372.41C341.818 372.528 341.603 372.644 341.388 372.762C330.675 378.606 319.721 383.466 308.618 387.392C308.337 387.494 308.056 387.599 307.775 387.701C304.079 388.99 300.364 390.182 296.641 391.267C296.571 391.287 296.5 391.302 296.434 391.322C285.034 394.627 273.521 396.967 261.988 398.381C261.831 398.401 261.675 398.416 261.515 398.436C184.939 407.659 107.675 376.042 58.548 314.394C57.583 313.183 56.606 311.98 55.665 310.741C54.099 308.69 52.571 306.592 51.067 304.475C49.7 302.549 48.368 300.596 47.059 298.619C45.926 296.92 44.785 295.228 43.695 293.489C41.273 289.625 38.921 285.703 36.717 281.663L36.706 281.671C36.679 281.624 36.651 281.581 36.628 281.534H36.624L0 307.129C14.67 335.324 33.637 359.991 55.632 380.783C56.659 381.756 57.698 382.709 58.738 383.666C61.797 386.472 64.911 389.19 68.08 391.843C69.506 393.042 70.916 394.261 72.366 395.429C75.694 398.098 79.089 400.668 82.524 403.172C85.391 405.27 88.318 407.274 91.259 409.255C93.497 410.759 95.725 412.279 98.002 413.713C100.624 415.369 103.292 416.943 105.968 418.511C107.898 419.64 109.84 420.741 111.797 421.82C114.579 423.355 117.368 424.875 120.204 426.313C122.244 427.344 124.318 428.301 126.385 429.286C130.635 431.306 134.929 433.224 139.281 435.025C142.305 436.275 145.329 437.525 148.391 438.666C150.509 439.452 152.653 440.174 154.79 440.904C158.291 442.111 161.807 443.248 165.354 444.311C166.952 444.788 168.55 445.272 170.16 445.717C243.502 466.239 325.582 455.956 396.458 406.431C425.364 386.229 448.71 362 466.724 335.281C466.79 335.179 466.86 335.082 466.93 334.98Z" fill="#374149"/>
<path d="M339.656 325.139C434.426 258.919 447.162 129.544 375.434 44.791L64.098 262.338C119.019 358.834 244.938 391.327 339.656 325.139ZM290.889 268.89C286.291 267.679 281.774 263.475 278.711 257.025C275.023 249.255 274.457 238.46 277.57 236.284C280.68 234.112 290.622 238.354 296.651 244.488C304.8 252.786 306.109 262.674 299.323 267.417C296.905 269.108 294.225 269.558 291.553 269.027C291.33 268.983 291.111 268.948 290.889 268.89ZM317.2 144.456C321.224 143.878 329.362 147.35 334.605 152.254C342.747 159.864 344.173 169.139 337.559 173.76C335.157 175.44 332.469 175.929 329.781 175.448C329.617 175.421 329.461 175.39 329.297 175.354C324.741 174.334 320.225 170.478 317.115 164.473C313.369 157.25 312.657 147.104 315.693 144.983C316.033 144.745 316.487 144.604 316.987 144.506C317.06 144.491 317.122 144.467 317.2 144.456ZM202.053 265.932C201.94 266.264 201.87 266.62 201.725 266.932C201.408 267.631 200.999 268.284 200.522 268.898C200.296 269.191 200.014 269.448 199.752 269.718C199.279 270.207 198.822 270.707 198.228 271.116C195.865 272.769 193.294 273.206 190.77 272.675C190.575 272.636 190.379 272.605 190.188 272.554C185.859 271.374 181.722 267.26 179.046 260.947C175.831 253.356 175.69 242.812 178.725 240.69C181.757 238.569 191.043 242.726 196.54 248.727C201.807 254.474 203.706 260.97 202.053 265.932Z" fill="#374149"/>
</svg>
