<svg width="512" height="490" viewBox="0 0 512 490" fill="none" xmlns="http://www.w3.org/2000/svg">
<path d="M255.998 212.302C260.084 212.302 338.529 162.837 338.529 91.134C338.529 46.841 310.896 0.969999 285.303 0.000999451C272.353 10.603 260.678 39.384 257.127 48.731C256.498 50.297 256.1 51.301 255.944 51.618C255.374 50.004 241.913 12.453 226.694 0C201.1 0.969 173.464 46.84 173.464 91.133C173.463 162.837 251.909 212.302 255.998 212.302Z" fill="#374149"/>
<path d="M211.854 244.377C213.12 240.487 190.316 150.595 122.12 128.439C89.1936 117.74 50.2296 122.845 30.5216 137.049C30.4986 137.064 30.4746 137.08 30.4556 137.095C24.9866 141.053 20.9246 145.673 19.0026 150.9C25.0406 166.4 48.5606 186.256 56.5026 192.65C57.8766 193.795 58.7526 194.517 59.0176 194.775C57.3106 194.822 17.4356 196.017 0.8926 206.642C-6.0994 231.283 28.9866 271.74 71.1106 285.424C139.307 307.584 210.592 248.264 211.854 244.377Z" fill="#374149"/>
<path d="M90.7246 345.787C64.6896 381.619 60.0876 434.971 80.2206 450.799C96.8766 449.842 123.119 433.525 131.58 427.994C133.053 427.068 133.99 426.475 134.314 426.303C133.818 427.982 122.646 466.241 127.635 485.245C148.913 499.511 198.229 478.643 224.264 442.807C266.413 384.799 232.026 298.673 228.718 296.268C225.409 293.865 132.87 287.775 90.7246 345.787Z" fill="#374149"/>
<path d="M511.108 206.642C497.288 197.764 467.139 195.47 456.581 194.928C454.695 194.798 453.429 194.717 452.956 194.662C454.39 193.56 485.87 169.196 492.995 150.9C484.167 126.858 432.002 114.752 389.877 128.439C321.682 150.595 298.877 240.486 300.143 244.377C301.405 248.264 372.69 307.584 440.885 285.424C483.01 271.74 518.097 231.283 511.108 206.642Z" fill="#374149"/>
<path d="M283.28 296.268C279.971 298.674 245.588 384.799 287.733 442.807C313.768 478.643 363.085 499.51 384.359 485.245C388.565 469.237 381.296 439.553 378.597 429.565C378.14 427.752 377.851 426.612 377.785 426.241C379.3 427.28 412.179 449.671 431.777 450.799C451.914 434.971 447.308 381.619 421.273 345.787C379.127 287.775 286.588 293.865 283.28 296.268Z" fill="#374149"/>
<path d="M277.729 258.717C277.729 246.717 268.003 236.987 255.999 236.987C243.999 236.987 234.269 246.717 234.269 258.717C234.269 270.721 243.999 280.451 255.999 280.451C268.002 280.451 277.729 270.721 277.729 258.717Z" fill="#374149"/>
</svg>
